<svg width="800" height="400" viewBox="0 0 800 400" xmlns="http://www.w3.org/2000/svg">
  <rect width="800" height="400" fill="#f8f9fa"/>
  <rect x="50" y="100" width="700" height="200" rx="10" fill="#ffffff" stroke="#0072ce" stroke-width="2"/>
  <path d="M200,250 C250,200 350,200 400,250 C450,300 550,300 600,250" fill="none" stroke="#0072ce" stroke-width="5"/>
  <path d="M200,200 C250,150 350,150 400,200 C450,250 550,250 600,200" fill="none" stroke="#0072ce" stroke-width="5"/>
  <path d="M200,300 C250,250 350,250 400,300 C450,350 550,350 600,300" fill="none" stroke="#0072ce" stroke-width="5"/>
  <path d="M200,150 L600,150" stroke="#F59E0B" stroke-width="3" stroke-dasharray="5,5"/>
  <circle cx="400" cy="150" r="15" fill="#F59E0B"/>
  <text x="400" y="100" text-anchor="middle" font-family="Arial" font-size="24" fill="#0072ce">罗氏线圈产品</text>
  <text x="400" y="350" text-anchor="middle" font-family="Arial" font-size="18" fill="#6b7280">LEM Rogowski Coils</text>
</svg>